<svg width="64" height="61" viewBox="0 0 64 61" fill="none" xmlns="http://www.w3.org/2000/svg">
<path d="M59.4288 0H4.55739C2.0431 0 0.000244141 1.97433 0.000244141 4.39799V56.602C0.000244141 59.0257 2.0431 61 4.55739 61H59.4288C61.9431 61 64.0002 59.0257 64.0002 56.602V4.39799C64.0002 1.97433 61.9431 0 59.4288 0ZM19.3431 52.2857H9.85739V23.1746H19.3574V52.2857H19.3431ZM14.6002 19.1987C11.5574 19.1987 9.10024 16.8431 9.10024 13.9565C9.10024 11.0699 11.5574 8.71429 14.6002 8.71429C17.6288 8.71429 20.1002 11.0699 20.1002 13.9565C20.1002 16.8567 17.6431 19.1987 14.6002 19.1987ZM54.9002 52.2857H45.4145V38.125C45.4145 34.7482 45.3431 30.4047 40.486 30.4047C35.5431 30.4047 34.786 34.081 34.786 37.8799V52.2857H25.3002V23.1746H34.4002V27.1504H34.5288C35.8002 24.8629 38.9002 22.4529 43.5145 22.4529C53.1145 22.4529 54.9002 28.4848 54.9002 36.3277V52.2857Z" fill="white"/>
</svg>
