<svg width="57" height="58" viewBox="0 0 57 58" fill="none" xmlns="http://www.w3.org/2000/svg">
<path d="M50.8931 0H6.10739C2.73574 0 0.000244141 2.78348 0.000244141 6.21429V51.7857C0.000244141 55.2165 2.73574 58 6.10739 58H50.8931C54.2648 58 57.0002 55.2165 57.0002 51.7857V6.21429C57.0002 2.78348 54.2648 0 50.8931 0ZM44.6715 20.5589C44.6969 20.9214 44.6969 21.2969 44.6969 21.6594C44.6969 32.8839 36.2996 45.8174 20.9554 45.8174C16.2223 45.8174 11.8328 44.4192 8.1431 42.0112C8.81743 42.0888 9.46632 42.1147 10.1534 42.1147C14.0594 42.1147 17.6473 40.7683 20.5101 38.4897C16.8458 38.4121 13.7668 35.9652 12.7107 32.5991C13.9958 32.7933 15.1536 32.7933 16.4768 32.4437C12.6598 31.654 9.79712 28.2362 9.79712 24.1062V24.0027C10.904 24.6371 12.2018 25.0254 13.5632 25.0772C12.4186 24.3026 11.4804 23.2516 10.8321 22.0182C10.1839 20.7848 9.84576 19.4072 9.84801 18.0085C9.84801 16.429 10.2552 14.979 10.9804 13.7232C15.09 18.8759 21.2607 22.242 28.1822 22.6045C26.9989 16.8433 31.2357 12.1696 36.325 12.1696C38.7297 12.1696 40.8927 13.1924 42.4194 14.8496C44.3025 14.4871 46.1092 13.775 47.7123 12.804C47.0889 14.7719 45.7784 16.429 44.048 17.4777C45.7275 17.2964 47.356 16.8174 48.8574 16.1571C47.725 17.8531 46.3 19.3549 44.6715 20.5589Z" fill="white"/>
</svg>
